HIERARCHY
ROOT root
{
	OFFSET 0.000000 0.000000 0.000000
	CHANNELS 6 Xposition Yposition Zposition Zrotation Yrotation Xrotation
	JOINT lhip
	{
		OFFSET 0.058581 -0.082280 -0.017664
		CHANNELS 3 Zrotation Yrotation Xrotation
		JOINT lknee
		{
			OFFSET 0.043451 -0.386469 0.008037
			CHANNELS 3 Zrotation Yrotation Xrotation
			JOINT lankle
			{
				OFFSET -0.014790 -0.426874 -0.037428
				CHANNELS 3 Zrotation Yrotation Xrotation
				JOINT ltoe
				{
					OFFSET 0.041054 -0.060286 0.122042
					CHANNELS 3 Zrotation Yrotation Xrotation
					End Site
					{
						OFFSET 0.000000 0.000000 0.000000
					}
				}
			}
		}
	}
	JOINT rhip
	{
		OFFSET -0.060310 -0.090513 -0.013543
		CHANNELS 3 Zrotation Yrotation Xrotation
		JOINT rknee
		{
			OFFSET -0.043257 -0.383688 -0.004843
			CHANNELS 3 Zrotation Yrotation Xrotation
			JOINT rankle
			{
				OFFSET 0.019056 -0.420046 -0.034562
				CHANNELS 3 Zrotation Yrotation Xrotation
				JOINT rtoe
				{
					OFFSET -0.034840 -0.062106 0.130323
					CHANNELS 3 Zrotation Yrotation Xrotation
					End Site
					{
						OFFSET 0.000000 0.000000 0.000000
					}
				}
			}
		}
	}
	JOINT lowerback
	{
		OFFSET 0.004439 0.124404 -0.038385
		CHANNELS 3 Zrotation Yrotation Xrotation
		JOINT upperback
		{
			OFFSET 0.004488 0.137956 0.026820
			CHANNELS 3 Zrotation Yrotation Xrotation
			JOINT chest
			{
				OFFSET -0.002265 0.056032 0.002855
				CHANNELS 3 Zrotation Yrotation Xrotation
				JOINT lowerneck
				{
					OFFSET -0.013390 0.211636 -0.033468
					CHANNELS 3 Zrotation Yrotation Xrotation
					JOINT upperneck
					{
						OFFSET 0.010113 0.088937 0.050410
						CHANNELS 3 Zrotation Yrotation Xrotation
						End Site
						{
							OFFSET 0.000000 0.000000 0.000000
						}
					}
				}
				JOINT lclavicle
				{
					OFFSET 0.071702 0.114000 -0.018898
					CHANNELS 3 Zrotation Yrotation Xrotation
					JOINT lshoulder
					{
						OFFSET 0.122921 0.045205 -0.019046
						CHANNELS 3 Zrotation Yrotation Xrotation
						JOINT lelbow
						{
							OFFSET 0.255332 -0.015649 -0.022946
							CHANNELS 3 Zrotation Yrotation Xrotation
							JOINT lwrist
							{
								OFFSET 0.265709 0.012698 -0.007375
								CHANNELS 3 Zrotation Yrotation Xrotation
								End Site
								{
									OFFSET 0.000000 0.000000 0.000000
								}
							}
						}
					}
				}
				JOINT rclavicle
				{
					OFFSET -0.082954 0.112472 -0.023707
					CHANNELS 3 Zrotation Yrotation Xrotation
					JOINT rshoulder
					{
						OFFSET -0.113228 0.046853 -0.008472
						CHANNELS 3 Zrotation Yrotation Xrotation
						JOINT relbow
						{
							OFFSET -0.260127 -0.014369 -0.031269
							CHANNELS 3 Zrotation Yrotation Xrotation
							JOINT rwrist
							{
								OFFSET -0.269108 0.006794 -0.006027
								CHANNELS 3 Zrotation Yrotation Xrotation
								End Site
								{
									OFFSET 0.000000 0.000000 0.000000
								}
							}
						}
					}
				}
			}
		}
	}
}
MOTION
Frames: 5
Frame Time: 0.033333
-1.752969 0.246268 1.000516 91.132818 -0.482936 88.516357 5.061522 -5.060577 -0.281673 -4.847600 -27.094257 10.749948 4.435860 4.742225 -19.345356 0.000000 -0.000000 0.000000 -5.508607 10.355205 -5.649838 3.701165 22.434737 21.128346 4.885514 4.439256 -20.434471 0.000000 -0.000000 0.000000 -1.531976 -1.644312 6.818251 3.197863 -0.267041 -5.663649 -0.897586 -0.868937 1.744223 5.793215 -4.481427 0.628807 -3.952171 -15.103502 13.241325 -27.352345 7.780740 1.955433 -51.097803 -4.589583 13.177476 4.328811 -33.652322 17.468465 -1.999418 -0.188532 3.299223 29.539646 -1.091245 -2.076082 54.076944 1.246597 17.190781 -10.769538 26.434997 6.743594 -1.682112 0.111462 1.716746 
-1.751980 0.247794 1.000334 91.752275 -0.410343 88.668054 4.949519 -5.423848 -0.633230 -4.758239 -27.166166 11.066825 5.138425 4.629728 -19.242822 0.000000 -0.000000 0.000000 -5.739113 10.033128 -5.424101 3.965890 22.491409 20.709101 5.125016 4.008560 -20.418497 0.000000 -0.000000 0.000000 -1.031802 -1.560456 6.250201 3.287287 -0.878679 -5.252156 -1.241762 -1.067159 1.506967 5.539772 -4.798984 1.161370 -3.708439 -15.041752 12.554946 -27.203663 7.850177 2.293512 -51.413765 -4.566490 13.364167 4.579865 -33.723994 18.012382 -2.193681 0.081482 2.302529 29.178013 -1.181997 -1.929710 54.258982 1.030432 17.296593 -10.957238 26.669481 7.268903 -1.670083 -0.278503 1.108146 
-1.751184 0.248313 1.000230 91.969374 -0.366675 88.636648 4.929930 -5.451549 -0.664656 -4.743553 -27.240173 11.206620 5.092060 4.518583 -19.284420 0.000000 -0.000000 0.000000 -5.736222 9.796925 -5.231736 3.944046 22.489913 20.564019 5.138327 4.024714 -20.398975 0.000000 -0.000000 0.000000 -0.725943 -1.728823 6.120156 3.253465 -1.284490 -5.120769 -1.494384 -0.982684 1.429234 5.442411 -4.848416 1.240053 -3.633095 -15.118742 12.488046 -27.068763 8.021195 2.188762 -51.437095 -4.386941 13.386901 4.350469 -33.634107 18.428581 -2.280904 0.009590 2.272859 29.133739 -1.203116 -1.947795 54.353297 1.029707 17.219150 -10.886693 26.594892 7.429830 -1.655153 -0.291838 1.135762 
-1.750047 0.247402 1.001038 91.474888 -0.405321 88.425035 4.948435 -5.171247 -0.132463 -4.751133 -27.183463 10.964281 5.153315 4.671520 -19.404678 0.000000 -0.000000 0.000000 -5.568276 10.229111 -4.939598 3.842589 22.727155 20.583952 5.084719 3.866158 -20.416336 0.000000 -0.000000 0.000000 -1.193380 -1.545383 5.955170 3.372651 -0.906935 -4.975970 -1.184224 -1.100135 1.362194 5.404387 -4.999786 1.614270 -3.632250 -14.919206 12.398825 -27.183003 7.795831 2.697815 -51.438210 -4.303020 13.385428 4.473496 -33.370730 18.370206 -2.359072 0.064122 2.259314 29.152343 -1.191304 -1.722946 54.187205 0.846608 17.140010 -10.960812 26.580170 7.341289 -1.627550 -0.421002 0.881877 
-1.749936 0.247183 1.000988 91.295319 -0.398281 88.444471 5.007513 -5.076303 -0.141387 -4.839349 -27.066820 11.026011 5.140340 4.692273 -19.482460 0.000000 -0.000000 0.000000 -5.515218 10.409579 -5.011351 3.838386 22.764265 20.680276 5.065754 3.801548 -20.425056 0.000000 -0.000000 0.000000 -1.285994 -1.587381 5.922301 3.387420 -0.822593 -4.989224 -1.139964 -1.091164 1.317890 5.413305 -5.018964 1.644224 -3.621062 -14.911468 12.409337 -27.148998 7.692574 2.781642 -51.488986 -4.093055 13.471324 4.549451 -33.255916 18.365793 -2.356617 -0.036560 2.188353 29.131767 -1.209655 -1.693034 54.213251 0.807818 17.155695 -10.953627 26.571001 7.382442 -1.635281 -0.421535 0.740070 
